<?xml version="1.0" standalone="no"?>
<svg height="1587.000" preserveAspectRatio="none" viewBox="0.000 0.000 1123.000 1587.000" width="1123.000" x="0.000" xmlns="http://www.w3.org/2000/svg" xmlns:svg="http://www.w3.org/2000/svg" xmlns:xlink="http://www.w3.org/1999/xlink" y="0.000">
<svg width="1123" height="1587" xmlns="http://www.w3.org/2000/svg"><defs><pattern id="mjS6BcB6pattern-0" x="0" y="0" width="32" height="32" patternUnits="userSpaceOnUse"><g><g><g clip-path="url(#mjS6BcB6clip-0)"><path fill="#cce5ff" stroke="none" d="M 0.5 0 L 1 0 C 1.277 0 1.5 0.223 1.5 0.5 L 1.5 1 C 1.5 1.277 1.277 1.5 1 1.5 L 0.5 1.5 C 0.223 1.5 0 1.277 0 1 L 0 0.5 C 0 0.223 0.223 0 0.5 0 Z M 0.5 0"/></g></g></g></pattern><clipPath id="mjS6BcB6clipPath1"><path fill="#000000" stroke="none" d="M 0 0 L 1123 0 L 1123 1587 L 0 1587 Z"/></clipPath><clipPath id="mjS6BcB6clip-0"><path fill="#000000" stroke="none" d="M 0 0 L 32 0 L 32 32 L 0 32 Z"/></clipPath></defs><g><g clip-path="url(#mjS6BcB6clipPath1)"><path fill="#ffffff" stroke="none" d="M -112.3 -158.7 L 1235.3 -158.7 L 1235.3 1745.7 L -112.3 1745.7 Z"/><path fill="url(#mjS6BcB6pattern-0)" stroke="none" d="M -112.3 -158.7 L 1235.3 -158.7 L 1235.3 1745.7 L -112.3 1745.7 Z"/></g></g></svg>
</svg>